<svg width="253" height="94" viewBox="0 0 253 94" fill="none" xmlns="http://www.w3.org/2000/svg">
<path d="M70.553 84.4606C69.337 84.4606 68.185 84.3166 67.097 84.0286C66.041 83.7406 65.065 83.3566 64.169 82.8766C63.305 82.3646 62.537 81.8046 61.865 81.1966C61.193 80.5886 60.665 79.9806 60.281 79.3726C59.929 78.8606 59.705 78.4446 59.609 78.1246C59.513 77.7726 59.529 77.4366 59.657 77.1166C59.817 76.7966 60.121 76.4446 60.569 76.0606C61.081 75.6766 61.529 75.5006 61.913 75.5326C62.297 75.5326 62.649 75.6766 62.969 75.9646C63.321 76.2526 63.673 76.6366 64.025 77.1166C64.825 78.2046 65.801 79.0046 66.953 79.5166C68.105 79.9966 69.241 80.2366 70.361 80.2366C71.801 80.2366 73.081 80.0446 74.201 79.6606C75.321 79.2766 76.201 78.7006 76.841 77.9326C77.513 77.1326 77.849 76.1086 77.849 74.8606C77.849 73.8366 77.593 72.9726 77.081 72.2686C76.569 71.5646 75.881 70.9726 75.017 70.4926C74.153 69.9806 73.193 69.5486 72.137 69.1966C71.081 68.8126 70.009 68.4446 68.921 68.0926C68.057 67.8046 67.209 67.4846 66.377 67.1326C65.545 66.7486 64.761 66.3326 64.025 65.8846C63.289 65.4046 62.633 64.8446 62.057 64.2046C61.513 63.5646 61.081 62.8126 60.761 61.9486C60.473 61.0846 60.329 60.0766 60.329 58.9246C60.329 57.1646 60.745 55.6126 61.577 54.2686C62.441 52.9246 63.641 51.8846 65.177 51.1486C66.713 50.3806 68.489 49.9966 70.505 49.9966C71.689 49.9966 72.777 50.1086 73.769 50.3326C74.761 50.5566 75.641 50.8606 76.409 51.2446C77.177 51.5966 77.833 51.9806 78.377 52.3966C78.921 52.7806 79.337 53.1486 79.625 53.5006C80.201 54.1086 80.521 54.6206 80.585 55.0366C80.649 55.4526 80.409 55.9646 79.865 56.5726C79.353 57.1486 78.857 57.4526 78.377 57.4846C77.897 57.5166 77.369 57.2926 76.793 56.8126C76.185 56.1086 75.545 55.5646 74.873 55.1806C74.233 54.7966 73.545 54.5406 72.809 54.4126C72.105 54.2526 71.321 54.1726 70.457 54.1726C69.625 54.1726 68.841 54.2846 68.105 54.5086C67.401 54.7006 66.777 55.0046 66.233 55.4206C65.721 55.8366 65.321 56.3486 65.033 56.9566C64.745 57.5326 64.601 58.2046 64.601 58.9726C64.601 59.8366 64.825 60.5726 65.273 61.1806C65.753 61.7886 66.377 62.3166 67.145 62.7646C67.913 63.1806 68.777 63.5646 69.737 63.9166C70.697 64.2366 71.705 64.5566 72.761 64.8766C73.913 65.2286 75.049 65.6606 76.169 66.1726C77.289 66.6526 78.297 67.2606 79.193 67.9966C80.089 68.7006 80.809 69.5966 81.353 70.6846C81.897 71.7726 82.169 73.1166 82.169 74.7166C82.169 76.3166 81.849 77.7246 81.209 78.9406C80.601 80.1566 79.753 81.1806 78.665 82.0126C77.577 82.8126 76.329 83.4206 74.921 83.8366C73.545 84.2526 72.089 84.4606 70.553 84.4606ZM97.1537 83.9806C95.6497 83.9806 94.3697 83.8366 93.3137 83.5486C92.2897 83.2606 91.4417 82.8126 90.7697 82.2046C90.0977 81.5966 89.6177 80.8126 89.3297 79.8526C89.0417 78.8606 88.8977 77.6446 88.8977 76.2046V54.9886C88.8977 54.5406 88.9457 54.1566 89.0417 53.8366C89.1377 53.5166 89.3297 53.2766 89.6177 53.1166C89.9057 52.9246 90.3537 52.8286 90.9617 52.8286C91.5697 52.8286 92.0337 52.9246 92.3537 53.1166C92.6737 53.2766 92.8817 53.5166 92.9777 53.8366C93.0737 54.1246 93.1217 54.4926 93.1217 54.9406V76.2046C93.1217 77.0366 93.1857 77.7086 93.3137 78.2206C93.4737 78.7006 93.6977 79.0686 93.9857 79.3246C94.3057 79.5806 94.7217 79.7406 95.2337 79.8046C95.7457 79.8686 96.3697 79.9006 97.1057 79.9006C97.6177 79.9006 98.0337 79.9486 98.3537 80.0446C98.6737 80.1406 98.9137 80.3326 99.0737 80.6206C99.2337 80.9086 99.3137 81.3406 99.3137 81.9166C99.3137 82.5246 99.2177 82.9886 99.0257 83.3086C98.8657 83.5966 98.6097 83.7726 98.2577 83.8366C97.9377 83.9326 97.5697 83.9806 97.1537 83.9806ZM86.4017 61.2766L91.0097 61.3246L97.6817 61.2286C98.1297 61.2286 98.5137 61.2766 98.8337 61.3726C99.1537 61.4366 99.3937 61.6286 99.5537 61.9486C99.7457 62.2366 99.8417 62.6846 99.8417 63.2926C99.8417 63.9006 99.7617 64.3646 99.6017 64.6846C99.4417 64.9726 99.2017 65.1646 98.8817 65.2606C98.5617 65.3566 98.1777 65.4046 97.7297 65.4046L91.1537 65.3086L86.3057 65.3566C85.6337 65.3566 85.1697 65.1966 84.9137 64.8766C84.6897 64.5566 84.5777 64.0286 84.5777 63.2926C84.5777 62.5886 84.7217 62.0766 85.0097 61.7566C85.2977 61.4366 85.7617 61.2766 86.4017 61.2766ZM124.033 83.9326C123.329 83.9326 122.817 83.7886 122.497 83.5006C122.209 83.2126 122.033 82.7646 121.969 82.1566L122.161 79.7566C121.841 80.2686 121.345 80.8606 120.673 81.5326C120.001 82.1726 119.121 82.7486 118.033 83.2606C116.945 83.7406 115.617 83.9806 114.049 83.9806C112.513 83.9806 111.073 83.6766 109.729 83.0686C108.417 82.4606 107.249 81.6126 106.225 80.5246C105.233 79.4366 104.449 78.1886 103.873 76.7806C103.329 75.3726 103.057 73.8686 103.057 72.2686C103.057 70.7006 103.329 69.2286 103.873 67.8526C104.449 66.4446 105.249 65.2126 106.273 64.1566C107.297 63.1006 108.465 62.2686 109.777 61.6606C111.121 61.0526 112.545 60.7486 114.049 60.7486C115.457 60.7486 116.657 60.9406 117.649 61.3246C118.641 61.6766 119.489 62.1566 120.193 62.7646C120.929 63.3406 121.569 63.9966 122.113 64.7326L122.017 62.7166C121.985 62.0126 122.129 61.5166 122.449 61.2286C122.801 60.9086 123.345 60.7486 124.081 60.7486C124.689 60.7486 125.121 60.8446 125.377 61.0366C125.665 61.2286 125.857 61.5006 125.953 61.8526C126.049 62.2046 126.097 62.6366 126.097 63.1486V81.6766C126.097 82.1246 126.049 82.5246 125.953 82.8766C125.857 83.2286 125.665 83.4846 125.377 83.6446C125.089 83.8366 124.641 83.9326 124.033 83.9326ZM114.769 79.9486C116.049 79.9486 117.217 79.6126 118.273 78.9406C119.361 78.2686 120.209 77.3726 120.817 76.2526C121.457 75.1006 121.777 73.7886 121.777 72.3166C121.777 70.8126 121.441 69.5006 120.769 68.3806C120.129 67.2286 119.265 66.3326 118.177 65.6926C117.121 65.0206 115.953 64.6846 114.673 64.6846C113.169 64.6846 111.857 65.0366 110.737 65.7406C109.649 66.4126 108.785 67.3246 108.145 68.4766C107.505 69.6286 107.185 70.9406 107.185 72.4126C107.185 73.8526 107.505 75.1486 108.145 76.3006C108.785 77.4206 109.665 78.3166 110.785 78.9886C111.937 79.6286 113.265 79.9486 114.769 79.9486ZM124.571 83.9806C123.963 83.9806 123.499 83.8846 123.179 83.6926C122.891 83.5326 122.699 83.2926 122.603 82.9726C122.539 82.6206 122.507 82.2206 122.507 81.7726V62.8606C122.507 62.3806 122.555 61.9806 122.651 61.6606C122.747 61.3406 122.939 61.1166 123.227 60.9886C123.515 60.8286 123.979 60.7486 124.619 60.7486C125.195 60.7486 125.627 60.8286 125.915 60.9886C126.235 61.1166 126.443 61.3246 126.539 61.6126C126.667 61.8686 126.731 62.1726 126.731 62.5246L126.539 63.9646C126.763 63.5486 127.019 63.1326 127.307 62.7166C127.627 62.3006 128.011 61.9326 128.459 61.6126C128.939 61.2606 129.499 60.9726 130.139 60.7486C130.811 60.5246 131.627 60.4126 132.587 60.4126C133.067 60.4126 133.515 60.4606 133.931 60.5566C134.379 60.6206 134.795 60.7326 135.179 60.8926C135.595 61.0526 135.947 61.2446 136.235 61.4686C136.523 61.6606 136.747 61.8846 136.907 62.1406C137.099 62.3646 137.195 62.6366 137.195 62.9566C137.195 63.6606 136.971 64.2686 136.523 64.7806C136.075 65.2606 135.611 65.5006 135.131 65.5006C134.715 65.5006 134.411 65.4526 134.219 65.3566C134.027 65.2286 133.835 65.1006 133.643 64.9726C133.483 64.8446 133.243 64.7326 132.923 64.6366C132.603 64.5086 132.091 64.4446 131.387 64.4446C130.907 64.4446 130.395 64.5406 129.851 64.7326C129.339 64.9246 128.843 65.2126 128.363 65.5966C127.883 65.9486 127.483 66.4126 127.163 66.9886C126.875 67.5646 126.731 68.2366 126.731 69.0046V81.8686C126.731 82.3166 126.683 82.7006 126.587 83.0206C126.491 83.3406 126.283 83.5806 125.963 83.7406C125.675 83.9006 125.211 83.9806 124.571 83.9806ZM143.543 83.9806C142.039 83.9806 140.759 83.8366 139.703 83.5486C138.679 83.2606 137.831 82.8126 137.159 82.2046C136.487 81.5966 136.007 80.8126 135.719 79.8526C135.431 78.8606 135.287 77.6446 135.287 76.2046V54.9886C135.287 54.5406 135.335 54.1566 135.431 53.8366C135.527 53.5166 135.719 53.2766 136.007 53.1166C136.295 52.9246 136.743 52.8286 137.351 52.8286C137.959 52.8286 138.423 52.9246 138.743 53.1166C139.063 53.2766 139.271 53.5166 139.367 53.8366C139.463 54.1246 139.511 54.4926 139.511 54.9406V76.2046C139.511 77.0366 139.575 77.7086 139.703 78.2206C139.863 78.7006 140.087 79.0686 140.375 79.3246C140.695 79.5806 141.111 79.7406 141.623 79.8046C142.135 79.8686 142.759 79.9006 143.495 79.9006C144.007 79.9006 144.423 79.9486 144.743 80.0446C145.063 80.1406 145.303 80.3326 145.463 80.6206C145.623 80.9086 145.703 81.3406 145.703 81.9166C145.703 82.5246 145.607 82.9886 145.415 83.3086C145.255 83.5966 144.999 83.7726 144.647 83.8366C144.327 83.9326 143.959 83.9806 143.543 83.9806ZM132.791 61.2766L137.399 61.3246L144.071 61.2286C144.519 61.2286 144.903 61.2766 145.223 61.3726C145.543 61.4366 145.783 61.6286 145.943 61.9486C146.135 62.2366 146.231 62.6846 146.231 63.2926C146.231 63.9006 146.151 64.3646 145.991 64.6846C145.831 64.9726 145.591 65.1646 145.271 65.2606C144.951 65.3566 144.567 65.4046 144.119 65.4046L137.543 65.3086L132.695 65.3566C132.023 65.3566 131.559 65.1966 131.303 64.8766C131.079 64.5566 130.967 64.0286 130.967 63.2926C130.967 62.5886 131.111 62.0766 131.399 61.7566C131.687 61.4366 132.151 61.2766 132.791 61.2766ZM159.862 84.0286C158.454 84.0286 157.142 83.7726 155.926 83.2606C154.742 82.7486 153.702 82.0286 152.806 81.1006C151.91 80.1726 151.206 79.0526 150.694 77.7406C150.214 76.4286 149.974 74.9406 149.974 73.2766V62.8606C149.974 62.4126 150.022 62.0286 150.118 61.7086C150.214 61.3886 150.406 61.1486 150.694 60.9886C151.014 60.7966 151.478 60.7006 152.086 60.7006C152.694 60.7006 153.142 60.7966 153.43 60.9886C153.75 61.1806 153.958 61.4366 154.054 61.7566C154.15 62.0766 154.198 62.4606 154.198 62.9086V73.3246C154.198 74.6366 154.422 75.8046 154.87 76.8286C155.318 77.8206 155.99 78.5886 156.886 79.1326C157.814 79.6766 158.934 79.9486 160.246 79.9486C161.59 79.9486 162.742 79.6766 163.702 79.1326C164.694 78.5886 165.446 77.8206 165.958 76.8286C166.502 75.8046 166.774 74.6366 166.774 73.3246V62.8606C166.774 62.4126 166.822 62.0286 166.918 61.7086C167.014 61.3886 167.206 61.1486 167.494 60.9886C167.814 60.7966 168.278 60.7006 168.886 60.7006C169.494 60.7006 169.942 60.7966 170.23 60.9886C170.55 61.1806 170.742 61.4366 170.806 61.7566C170.902 62.0766 170.95 62.4606 170.95 62.9086V81.9646C170.95 82.3486 170.902 82.7006 170.806 83.0206C170.742 83.3086 170.55 83.5326 170.23 83.6926C169.942 83.8526 169.494 83.9326 168.886 83.9326C168.438 83.9326 168.07 83.8846 167.782 83.7886C167.526 83.6926 167.334 83.5646 167.206 83.4046C167.078 83.2446 166.982 83.0686 166.918 82.8766C166.886 82.6526 166.87 82.4286 166.87 82.2046L167.062 80.1406C166.742 80.5246 166.358 80.9406 165.91 81.3886C165.462 81.8366 164.934 82.2686 164.326 82.6846C163.75 83.0686 163.094 83.3886 162.358 83.6446C161.622 83.9006 160.79 84.0286 159.862 84.0286ZM188.468 83.7886C186.9 83.7886 185.476 83.5006 184.196 82.9246C182.916 82.3486 181.828 81.5486 180.932 80.5246C180.036 79.4686 179.332 78.2366 178.82 76.8286C178.34 75.4206 178.116 73.8686 178.148 72.1726C178.148 70.5086 178.388 68.9726 178.868 67.5646C179.348 66.1566 180.036 64.9406 180.932 63.9166C181.86 62.8606 182.948 62.0606 184.196 61.5166C185.476 60.9406 186.9 60.6526 188.468 60.6526C189.94 60.6526 191.316 60.9406 192.596 61.5166C193.908 62.0926 195.044 62.9086 196.004 63.9646C196.996 64.9886 197.764 66.2206 198.308 67.6606C198.884 69.1006 199.172 70.6526 199.172 72.3166C199.172 73.9806 198.884 75.5166 198.308 76.9246C197.764 78.3326 196.996 79.5486 196.004 80.5726C195.044 81.5966 193.908 82.3966 192.596 82.9726C191.316 83.5166 189.94 83.7886 188.468 83.7886ZM178.484 93.4366C177.876 93.4366 177.412 93.3406 177.092 93.1486C176.804 92.9886 176.596 92.7486 176.468 92.4286C176.372 92.1086 176.324 91.7246 176.324 91.2766V62.9086C176.324 62.4606 176.372 62.0766 176.468 61.7566C176.564 61.4366 176.756 61.1966 177.044 61.0366C177.364 60.8446 177.828 60.7486 178.436 60.7486C179.14 60.7486 179.652 60.8606 179.972 61.0846C180.324 61.3086 180.532 61.7086 180.596 62.2846V91.2286C180.628 91.6766 180.596 92.0606 180.5 92.3806C180.404 92.7326 180.196 92.9886 179.876 93.1486C179.588 93.3406 179.124 93.4366 178.484 93.4366ZM187.844 79.8526C189.188 79.8526 190.404 79.5326 191.492 78.8926C192.58 78.2206 193.428 77.3086 194.036 76.1566C194.676 75.0046 194.996 73.6926 194.996 72.2206C194.996 70.7166 194.676 69.4046 194.036 68.2846C193.428 67.1646 192.58 66.3006 191.492 65.6926C190.436 65.0526 189.22 64.7326 187.844 64.7326C186.5 64.7326 185.284 65.0526 184.196 65.6926C183.14 66.3326 182.292 67.2126 181.652 68.3326C181.044 69.4526 180.74 70.7486 180.74 72.2206C180.74 73.6926 181.044 75.0046 181.652 76.1566C182.292 77.3086 183.14 78.2206 184.196 78.8926C185.284 79.5326 186.5 79.8526 187.844 79.8526Z" fill="#FF4500" style="fill:white;" />
<path d="M25.174 36V44.3444H28.4027V36H25.174ZM11.9899 38.5076L9.3446 40.1335L14.7959 46.9671L17.4398 45.3412L11.9899 38.5076ZM41.5862 38.5076L36.1365 45.3412L38.7808 46.9671L44.232 40.1335L41.5862 38.5076ZM26.7877 46.6275C18.8892 46.6275 12.4863 50.8378 12.4863 56.0324L20.6117 77.6335H32.9651L41.0899 56.0324C41.0899 50.8379 34.6866 46.6275 26.7877 46.6275ZM1.10316 49.1317L0 51.7966L8.92797 54.6499L10.0352 51.9863L1.10316 49.1317ZM52.473 49.1317L43.5406 51.9866L44.6441 54.6505L53.5765 51.7967L52.473 49.1317ZM9.60392 61.3141L0.423813 63.4756L1.25676 66.2114L10.4369 64.053L9.60392 61.3141ZM43.9722 61.3141L43.1398 64.0529L52.32 66.211L53.1523 63.4752L43.9722 61.3141ZM20.4316 79.2082V82.963H33.1453V79.2087L20.4316 79.2082ZM20.4316 84.8295V88.5843H33.1453V84.8301L20.4316 84.8295Z" fill="#FF4500" style="fill:white;" />
<path d="M202.912 80.2941C202.634 80.2941 202.389 80.2301 202.176 80.1021C201.962 79.9528 201.856 79.7395 201.856 79.4621V57.7021C201.856 57.4888 201.93 57.3075 202.08 57.1581C202.25 57.0088 202.474 56.9235 202.752 56.9021H208.64C209.877 56.9021 210.997 57.1261 212 57.5741C213.002 58.0221 213.792 58.7475 214.368 59.7501C214.944 60.7315 215.232 62.0435 215.232 63.6861V64.0061C215.232 65.6701 214.933 67.0035 214.336 68.0061C213.76 68.9875 212.96 69.7128 211.936 70.1821C210.933 70.6301 209.813 70.8541 208.576 70.8541H203.968V79.4621C203.968 79.7395 203.85 79.9528 203.616 80.1021C203.402 80.2301 203.168 80.2941 202.912 80.2941ZM203.968 68.9981H208.576C210.005 68.9981 211.114 68.6035 211.904 67.8141C212.714 67.0035 213.12 65.7661 213.12 64.1021V63.7501C213.12 62.0648 212.714 60.8275 211.904 60.0381C211.114 59.2488 210.005 58.8541 208.576 58.8541H203.968V68.9981ZM219.595 80.2941C219.317 80.2941 219.072 80.2088 218.859 80.0381C218.667 79.8675 218.571 79.6755 218.571 79.4621V56.6781C218.571 56.4221 218.667 56.2301 218.859 56.1021C219.072 55.9528 219.317 55.8781 219.595 55.8781C219.893 55.8781 220.139 55.9528 220.331 56.1021C220.544 56.2301 220.651 56.4221 220.651 56.6781V79.4621C220.651 79.6755 220.544 79.8675 220.331 80.0381C220.139 80.2088 219.893 80.2941 219.595 80.2941ZM228.299 80.5181C227.083 80.5181 226.048 80.1768 225.195 79.4941C224.363 78.7901 223.947 77.7235 223.947 76.2941C223.947 75.1208 224.256 74.2248 224.875 73.6061C225.515 72.9661 226.389 72.5288 227.499 72.2941C228.629 72.0381 229.931 71.9101 231.403 71.9101H233.035V71.1741C233.035 70.4701 232.907 69.7875 232.651 69.1261C232.416 68.4435 232.021 67.8888 231.467 67.4621C230.933 67.0141 230.197 66.7901 229.259 66.7901C228.555 66.7901 227.979 66.8648 227.531 67.0141C227.083 67.1635 226.731 67.3235 226.475 67.4941C226.219 67.6435 226.005 67.7181 225.835 67.7181C225.579 67.7181 225.365 67.5901 225.195 67.3341C225.045 67.0781 224.971 66.8435 224.971 66.6301C224.971 66.3315 225.195 66.0648 225.643 65.8301C226.091 65.5741 226.645 65.3715 227.307 65.2221C227.989 65.0515 228.661 64.9661 229.323 64.9661C230.752 64.9661 231.883 65.2648 232.715 65.8621C233.568 66.4381 234.176 67.1955 234.539 68.1341C234.923 69.0728 235.115 70.0755 235.115 71.1421V79.4621C235.115 79.6968 235.019 79.8995 234.827 80.0701C234.656 80.2195 234.411 80.2941 234.091 80.2941C233.835 80.2941 233.6 80.2195 233.387 80.0701C233.195 79.8995 233.099 79.6968 233.099 79.4621V78.0541C232.565 78.6941 231.904 79.2701 231.115 79.7821C230.325 80.2728 229.387 80.5181 228.299 80.5181ZM228.811 78.7581C229.515 78.7581 230.187 78.5768 230.827 78.2141C231.467 77.8515 231.989 77.4141 232.395 76.9021C232.821 76.3688 233.035 75.8675 233.035 75.3981V73.3501H231.691C230.731 73.3501 229.813 73.4141 228.939 73.5421C228.085 73.6488 227.381 73.8941 226.827 74.2781C226.293 74.6621 226.027 75.2701 226.027 76.1021C226.027 77.0195 226.293 77.6915 226.827 78.1181C227.381 78.5448 228.043 78.7581 228.811 78.7581ZM239.994 80.2941C239.717 80.2941 239.471 80.2088 239.258 80.0381C239.066 79.8675 238.97 79.6755 238.97 79.4621V65.9581C238.97 65.7021 239.066 65.5101 239.258 65.3821C239.471 65.2328 239.717 65.1581 239.994 65.1581C240.271 65.1581 240.506 65.2328 240.698 65.3821C240.89 65.5101 240.986 65.7021 240.986 65.9581V67.3981C241.327 66.7795 241.861 66.2248 242.586 65.7341C243.311 65.2221 244.207 64.9661 245.274 64.9661C246.298 64.9661 247.237 65.2435 248.09 65.7981C248.965 66.3315 249.658 67.0568 250.17 67.9741C250.682 68.8701 250.938 69.8728 250.938 70.9821V79.4621C250.938 79.7395 250.831 79.9528 250.618 80.1021C250.405 80.2301 250.159 80.2941 249.882 80.2941C249.647 80.2941 249.413 80.2301 249.178 80.1021C248.965 79.9528 248.858 79.7395 248.858 79.4621V70.9821C248.858 70.2781 248.677 69.6168 248.314 68.9981C247.951 68.3795 247.471 67.8781 246.874 67.4941C246.277 67.0888 245.615 66.8861 244.89 66.8861C244.25 66.8861 243.631 67.0568 243.034 67.3981C242.458 67.7181 241.978 68.1768 241.594 68.7741C241.231 69.3715 241.05 70.1075 241.05 70.9821V79.4621C241.05 79.6755 240.943 79.8675 240.73 80.0381C240.538 80.2088 240.293 80.2941 239.994 80.2941Z" fill="#210E06"/>
</svg>
