<svg width="178" height="159" viewBox="0 0 178 159" fill="none" xmlns="http://www.w3.org/2000/svg">
<path d="M89 0L94.318 49.5076L116.503 3.89101L104.433 52.4434L141.313 15.1832L113.038 58.0278L161.003 32.7711L119.29 65.714L173.644 54.9332L122.576 74.7497L178 79.5L122.576 84.2503L173.644 104.067L119.29 93.286L161.003 126.229L113.038 100.972L141.313 143.817L104.433 106.557L116.503 155.109L94.318 109.492L89 159L83.682 109.492L61.4975 155.109L73.5666 106.557L36.6871 143.817L64.9619 100.972L16.9975 126.229L58.7103 93.286L4.35597 104.067L55.4236 84.2503L0 79.5L55.4236 74.7497L4.35597 54.9332L58.7103 65.714L16.9975 32.7711L64.9619 58.0278L36.6871 15.1832L73.5666 52.4434L61.4975 3.89101L83.682 49.5076L89 0Z" fill="#FF4500"/>
</svg>
