<svg width="136" height="83" viewBox="0 0 136 83" fill="none" xmlns="http://www.w3.org/2000/svg">
<path d="M68 0C73.2601 0 78.3048 2.08958 82.0243 5.80905C85.7438 9.52852 87.8333 14.5732 87.8333 19.8333C87.8333 25.0935 85.7438 30.1381 82.0243 33.8576C78.3048 37.5771 73.2601 39.6667 68 39.6667C62.7399 39.6667 57.6952 37.5771 53.9757 33.8576C50.2562 30.1381 48.1667 25.0935 48.1667 19.8333C48.1667 14.5732 50.2562 9.52852 53.9757 5.80905C57.6952 2.08958 62.7399 0 68 0ZM28.3333 14.1667C31.5067 14.1667 34.4533 15.0167 37.0033 16.5467C36.1533 24.65 38.5333 32.6967 43.4067 38.9867C40.5733 44.4267 34.9067 48.1667 28.3333 48.1667C23.8247 48.1667 19.5006 46.3756 16.3125 43.1875C13.1244 39.9994 11.3333 35.6753 11.3333 31.1667C11.3333 26.658 13.1244 22.334 16.3125 19.1458C19.5006 15.9577 23.8247 14.1667 28.3333 14.1667ZM107.667 14.1667C112.175 14.1667 116.499 15.9577 119.687 19.1458C122.876 22.334 124.667 26.658 124.667 31.1667C124.667 35.6753 122.876 39.9994 119.687 43.1875C116.499 46.3756 112.175 48.1667 107.667 48.1667C101.093 48.1667 95.4267 44.4267 92.5933 38.9867C97.534 32.6084 99.8272 24.5718 98.9967 16.5467C101.547 15.0167 104.493 14.1667 107.667 14.1667ZM31.1667 72.25C31.1667 60.52 47.6567 51 68 51C88.3433 51 104.833 60.52 104.833 72.25V82.1667H31.1667V72.25ZM0 82.1667V73.6667C0 65.79 10.71 59.16 25.2167 57.2333C21.8733 61.0867 19.8333 66.4133 19.8333 72.25V82.1667H0ZM136 82.1667H116.167V72.25C116.167 66.4133 114.127 61.0867 110.783 57.2333C125.29 59.16 136 65.79 136 73.6667V82.1667Z" fill="#FF4500"/>
</svg>
