<svg width="253" height="142" viewBox="0 0 253 142" fill="none" xmlns="http://www.w3.org/2000/svg">
<path d="M70.553 126.46C69.337 126.46 68.185 126.316 67.097 126.028C66.041 125.74 65.065 125.356 64.169 124.876C63.305 124.364 62.537 123.804 61.865 123.196C61.193 122.588 60.665 121.98 60.281 121.372C59.929 120.86 59.705 120.444 59.609 120.124C59.513 119.772 59.529 119.436 59.657 119.116C59.817 118.796 60.121 118.444 60.569 118.06C61.081 117.676 61.529 117.5 61.913 117.532C62.297 117.532 62.649 117.676 62.969 117.964C63.321 118.252 63.673 118.636 64.025 119.116C64.825 120.204 65.801 121.004 66.953 121.516C68.105 121.996 69.241 122.236 70.361 122.236C71.801 122.236 73.081 122.044 74.201 121.66C75.321 121.276 76.201 120.7 76.841 119.932C77.513 119.132 77.849 118.108 77.849 116.86C77.849 115.836 77.593 114.972 77.081 114.268C76.569 113.564 75.881 112.972 75.017 112.492C74.153 111.98 73.193 111.548 72.137 111.196C71.081 110.812 70.009 110.444 68.921 110.092C68.057 109.804 67.209 109.484 66.377 109.132C65.545 108.748 64.761 108.332 64.025 107.884C63.289 107.404 62.633 106.844 62.057 106.204C61.513 105.564 61.081 104.812 60.761 103.948C60.473 103.084 60.329 102.076 60.329 100.924C60.329 99.1645 60.745 97.6125 61.577 96.2685C62.441 94.9245 63.641 93.8845 65.177 93.1485C66.713 92.3805 68.489 91.9965 70.505 91.9965C71.689 91.9965 72.777 92.1085 73.769 92.3325C74.761 92.5565 75.641 92.8605 76.409 93.2445C77.177 93.5965 77.833 93.9805 78.377 94.3965C78.921 94.7805 79.337 95.1485 79.625 95.5005C80.201 96.1085 80.521 96.6205 80.585 97.0365C80.649 97.4525 80.409 97.9645 79.865 98.5725C79.353 99.1485 78.857 99.4525 78.377 99.4845C77.897 99.5165 77.369 99.2925 76.793 98.8125C76.185 98.1085 75.545 97.5645 74.873 97.1805C74.233 96.7965 73.545 96.5405 72.809 96.4125C72.105 96.2525 71.321 96.1725 70.457 96.1725C69.625 96.1725 68.841 96.2845 68.105 96.5085C67.401 96.7005 66.777 97.0045 66.233 97.4205C65.721 97.8365 65.321 98.3485 65.033 98.9565C64.745 99.5325 64.601 100.204 64.601 100.972C64.601 101.836 64.825 102.572 65.273 103.18C65.753 103.788 66.377 104.316 67.145 104.764C67.913 105.18 68.777 105.564 69.737 105.916C70.697 106.236 71.705 106.556 72.761 106.876C73.913 107.228 75.049 107.66 76.169 108.172C77.289 108.652 78.297 109.26 79.193 109.996C80.089 110.7 80.809 111.596 81.353 112.684C81.897 113.772 82.169 115.116 82.169 116.716C82.169 118.316 81.849 119.724 81.209 120.94C80.601 122.156 79.753 123.18 78.665 124.012C77.577 124.812 76.329 125.42 74.921 125.836C73.545 126.252 72.089 126.46 70.553 126.46ZM97.1537 125.98C95.6497 125.98 94.3697 125.836 93.3137 125.548C92.2897 125.26 91.4417 124.812 90.7697 124.204C90.0977 123.596 89.6177 122.812 89.3297 121.852C89.0417 120.86 88.8977 119.644 88.8977 118.204V96.9885C88.8977 96.5405 88.9457 96.1565 89.0417 95.8365C89.1377 95.5165 89.3297 95.2765 89.6177 95.1165C89.9057 94.9245 90.3537 94.8285 90.9617 94.8285C91.5697 94.8285 92.0337 94.9245 92.3537 95.1165C92.6737 95.2765 92.8817 95.5165 92.9777 95.8365C93.0737 96.1245 93.1217 96.4925 93.1217 96.9405V118.204C93.1217 119.036 93.1857 119.708 93.3137 120.22C93.4737 120.7 93.6977 121.068 93.9857 121.324C94.3057 121.58 94.7217 121.74 95.2337 121.804C95.7457 121.868 96.3697 121.9 97.1057 121.9C97.6177 121.9 98.0337 121.948 98.3537 122.044C98.6737 122.14 98.9137 122.332 99.0737 122.62C99.2337 122.908 99.3137 123.34 99.3137 123.916C99.3137 124.524 99.2177 124.988 99.0257 125.308C98.8657 125.596 98.6097 125.772 98.2577 125.836C97.9377 125.932 97.5697 125.98 97.1537 125.98ZM86.4017 103.276L91.0097 103.324L97.6817 103.228C98.1297 103.228 98.5137 103.276 98.8337 103.372C99.1537 103.436 99.3937 103.628 99.5537 103.948C99.7457 104.236 99.8417 104.684 99.8417 105.292C99.8417 105.9 99.7617 106.364 99.6017 106.684C99.4417 106.972 99.2017 107.164 98.8817 107.26C98.5617 107.356 98.1777 107.404 97.7297 107.404L91.1537 107.308L86.3057 107.356C85.6337 107.356 85.1697 107.196 84.9137 106.876C84.6897 106.556 84.5777 106.028 84.5777 105.292C84.5777 104.588 84.7217 104.076 85.0097 103.756C85.2977 103.436 85.7617 103.276 86.4017 103.276ZM124.033 125.932C123.329 125.932 122.817 125.788 122.497 125.5C122.209 125.212 122.033 124.764 121.969 124.156L122.161 121.756C121.841 122.268 121.345 122.86 120.673 123.532C120.001 124.172 119.121 124.748 118.033 125.26C116.945 125.74 115.617 125.98 114.049 125.98C112.513 125.98 111.073 125.676 109.729 125.068C108.417 124.46 107.249 123.612 106.225 122.524C105.233 121.436 104.449 120.188 103.873 118.78C103.329 117.372 103.057 115.868 103.057 114.268C103.057 112.7 103.329 111.228 103.873 109.852C104.449 108.444 105.249 107.212 106.273 106.156C107.297 105.1 108.465 104.268 109.777 103.66C111.121 103.052 112.545 102.748 114.049 102.748C115.457 102.748 116.657 102.94 117.649 103.324C118.641 103.676 119.489 104.156 120.193 104.764C120.929 105.34 121.569 105.996 122.113 106.732L122.017 104.716C121.985 104.012 122.129 103.516 122.449 103.228C122.801 102.908 123.345 102.748 124.081 102.748C124.689 102.748 125.121 102.844 125.377 103.036C125.665 103.228 125.857 103.5 125.953 103.852C126.049 104.204 126.097 104.636 126.097 105.148V123.676C126.097 124.124 126.049 124.524 125.953 124.876C125.857 125.228 125.665 125.484 125.377 125.644C125.089 125.836 124.641 125.932 124.033 125.932ZM114.769 121.948C116.049 121.948 117.217 121.612 118.273 120.94C119.361 120.268 120.209 119.372 120.817 118.252C121.457 117.1 121.777 115.788 121.777 114.316C121.777 112.812 121.441 111.5 120.769 110.38C120.129 109.228 119.265 108.332 118.177 107.692C117.121 107.02 115.953 106.684 114.673 106.684C113.169 106.684 111.857 107.036 110.737 107.74C109.649 108.412 108.785 109.324 108.145 110.476C107.505 111.628 107.185 112.94 107.185 114.412C107.185 115.852 107.505 117.148 108.145 118.3C108.785 119.42 109.665 120.316 110.785 120.988C111.937 121.628 113.265 121.948 114.769 121.948ZM124.571 125.98C123.963 125.98 123.499 125.884 123.179 125.692C122.891 125.532 122.699 125.292 122.603 124.972C122.539 124.62 122.507 124.22 122.507 123.772V104.86C122.507 104.38 122.555 103.98 122.651 103.66C122.747 103.34 122.939 103.116 123.227 102.988C123.515 102.828 123.979 102.748 124.619 102.748C125.195 102.748 125.627 102.828 125.915 102.988C126.235 103.116 126.443 103.324 126.539 103.612C126.667 103.868 126.731 104.172 126.731 104.524L126.539 105.964C126.763 105.548 127.019 105.132 127.307 104.716C127.627 104.3 128.011 103.932 128.459 103.612C128.939 103.26 129.499 102.972 130.139 102.748C130.811 102.524 131.627 102.412 132.587 102.412C133.067 102.412 133.515 102.46 133.931 102.556C134.379 102.62 134.795 102.732 135.179 102.892C135.595 103.052 135.947 103.244 136.235 103.468C136.523 103.66 136.747 103.884 136.907 104.14C137.099 104.364 137.195 104.636 137.195 104.956C137.195 105.66 136.971 106.268 136.523 106.78C136.075 107.26 135.611 107.5 135.131 107.5C134.715 107.5 134.411 107.452 134.219 107.356C134.027 107.228 133.835 107.1 133.643 106.972C133.483 106.844 133.243 106.732 132.923 106.636C132.603 106.508 132.091 106.444 131.387 106.444C130.907 106.444 130.395 106.54 129.851 106.732C129.339 106.924 128.843 107.212 128.363 107.596C127.883 107.948 127.483 108.412 127.163 108.988C126.875 109.564 126.731 110.236 126.731 111.004V123.868C126.731 124.316 126.683 124.7 126.587 125.02C126.491 125.34 126.283 125.58 125.963 125.74C125.675 125.9 125.211 125.98 124.571 125.98ZM143.543 125.98C142.039 125.98 140.759 125.836 139.703 125.548C138.679 125.26 137.831 124.812 137.159 124.204C136.487 123.596 136.007 122.812 135.719 121.852C135.431 120.86 135.287 119.644 135.287 118.204V96.9885C135.287 96.5405 135.335 96.1565 135.431 95.8365C135.527 95.5165 135.719 95.2765 136.007 95.1165C136.295 94.9245 136.743 94.8285 137.351 94.8285C137.959 94.8285 138.423 94.9245 138.743 95.1165C139.063 95.2765 139.271 95.5165 139.367 95.8365C139.463 96.1245 139.511 96.4925 139.511 96.9405V118.204C139.511 119.036 139.575 119.708 139.703 120.22C139.863 120.7 140.087 121.068 140.375 121.324C140.695 121.58 141.111 121.74 141.623 121.804C142.135 121.868 142.759 121.9 143.495 121.9C144.007 121.9 144.423 121.948 144.743 122.044C145.063 122.14 145.303 122.332 145.463 122.62C145.623 122.908 145.703 123.34 145.703 123.916C145.703 124.524 145.607 124.988 145.415 125.308C145.255 125.596 144.999 125.772 144.647 125.836C144.327 125.932 143.959 125.98 143.543 125.98ZM132.791 103.276L137.399 103.324L144.071 103.228C144.519 103.228 144.903 103.276 145.223 103.372C145.543 103.436 145.783 103.628 145.943 103.948C146.135 104.236 146.231 104.684 146.231 105.292C146.231 105.9 146.151 106.364 145.991 106.684C145.831 106.972 145.591 107.164 145.271 107.26C144.951 107.356 144.567 107.404 144.119 107.404L137.543 107.308L132.695 107.356C132.023 107.356 131.559 107.196 131.303 106.876C131.079 106.556 130.967 106.028 130.967 105.292C130.967 104.588 131.111 104.076 131.399 103.756C131.687 103.436 132.151 103.276 132.791 103.276ZM159.862 126.028C158.454 126.028 157.142 125.772 155.926 125.26C154.742 124.748 153.702 124.028 152.806 123.1C151.91 122.172 151.206 121.052 150.694 119.74C150.214 118.428 149.974 116.94 149.974 115.276V104.86C149.974 104.412 150.022 104.028 150.118 103.708C150.214 103.388 150.406 103.148 150.694 102.988C151.014 102.796 151.478 102.7 152.086 102.7C152.694 102.7 153.142 102.796 153.43 102.988C153.75 103.18 153.958 103.436 154.054 103.756C154.15 104.076 154.198 104.46 154.198 104.908V115.324C154.198 116.636 154.422 117.804 154.87 118.828C155.318 119.82 155.99 120.588 156.886 121.132C157.814 121.676 158.934 121.948 160.246 121.948C161.59 121.948 162.742 121.676 163.702 121.132C164.694 120.588 165.446 119.82 165.958 118.828C166.502 117.804 166.774 116.636 166.774 115.324V104.86C166.774 104.412 166.822 104.028 166.918 103.708C167.014 103.388 167.206 103.148 167.494 102.988C167.814 102.796 168.278 102.7 168.886 102.7C169.494 102.7 169.942 102.796 170.23 102.988C170.55 103.18 170.742 103.436 170.806 103.756C170.902 104.076 170.95 104.46 170.95 104.908V123.964C170.95 124.348 170.902 124.7 170.806 125.02C170.742 125.308 170.55 125.532 170.23 125.692C169.942 125.852 169.494 125.932 168.886 125.932C168.438 125.932 168.07 125.884 167.782 125.788C167.526 125.692 167.334 125.564 167.206 125.404C167.078 125.244 166.982 125.068 166.918 124.876C166.886 124.652 166.87 124.428 166.87 124.204L167.062 122.14C166.742 122.524 166.358 122.94 165.91 123.388C165.462 123.836 164.934 124.268 164.326 124.684C163.75 125.068 163.094 125.388 162.358 125.644C161.622 125.9 160.79 126.028 159.862 126.028ZM188.468 125.788C186.9 125.788 185.476 125.5 184.196 124.924C182.916 124.348 181.828 123.548 180.932 122.524C180.036 121.468 179.332 120.236 178.82 118.828C178.34 117.42 178.116 115.868 178.148 114.172C178.148 112.508 178.388 110.972 178.868 109.564C179.348 108.156 180.036 106.94 180.932 105.916C181.86 104.86 182.948 104.06 184.196 103.516C185.476 102.94 186.9 102.652 188.468 102.652C189.94 102.652 191.316 102.94 192.596 103.516C193.908 104.092 195.044 104.908 196.004 105.964C196.996 106.988 197.764 108.22 198.308 109.66C198.884 111.1 199.172 112.652 199.172 114.316C199.172 115.98 198.884 117.516 198.308 118.924C197.764 120.332 196.996 121.548 196.004 122.572C195.044 123.596 193.908 124.396 192.596 124.972C191.316 125.516 189.94 125.788 188.468 125.788ZM178.484 135.436C177.876 135.436 177.412 135.34 177.092 135.148C176.804 134.988 176.596 134.748 176.468 134.428C176.372 134.108 176.324 133.724 176.324 133.276V104.908C176.324 104.46 176.372 104.076 176.468 103.756C176.564 103.436 176.756 103.196 177.044 103.036C177.364 102.844 177.828 102.748 178.436 102.748C179.14 102.748 179.652 102.86 179.972 103.084C180.324 103.308 180.532 103.708 180.596 104.284V133.228C180.628 133.676 180.596 134.06 180.5 134.38C180.404 134.732 180.196 134.988 179.876 135.148C179.588 135.34 179.124 135.436 178.484 135.436ZM187.844 121.852C189.188 121.852 190.404 121.532 191.492 120.892C192.58 120.22 193.428 119.308 194.036 118.156C194.676 117.004 194.996 115.692 194.996 114.22C194.996 112.716 194.676 111.404 194.036 110.284C193.428 109.164 192.58 108.3 191.492 107.692C190.436 107.052 189.22 106.732 187.844 106.732C186.5 106.732 185.284 107.052 184.196 107.692C183.14 108.332 182.292 109.212 181.652 110.332C181.044 111.452 180.74 112.748 180.74 114.22C180.74 115.692 181.044 117.004 181.652 118.156C182.292 119.308 183.14 120.22 184.196 120.892C185.284 121.532 186.5 121.852 187.844 121.852Z" fill="white"/>
<path d="M25.174 87.5137V96.0556H28.4027V87.5137H25.174ZM11.9899 90.0807L9.3446 91.745L14.7959 98.7404L17.4398 97.076L11.9899 90.0807ZM41.5862 90.0807L36.1365 97.076L38.7808 98.7404L44.232 91.745L41.5862 90.0807ZM26.7877 98.3927C18.8892 98.3927 12.4863 102.703 12.4863 108.02L20.6117 130.133H32.9651L41.0899 108.02C41.0899 102.703 34.6866 98.3927 26.7877 98.3927ZM1.10316 100.956L0 103.684L8.92797 106.605L10.0352 103.878L1.10316 100.956ZM52.473 100.956L43.5406 103.879L44.6441 106.606L53.5765 103.684L52.473 100.956ZM9.60392 113.427L0.423813 115.64L1.25676 118.44L10.4369 116.231L9.60392 113.427ZM43.9722 113.427L43.1398 116.231L52.32 118.44L53.1523 115.639L43.9722 113.427ZM20.4316 131.745V135.588H33.1453V131.745L20.4316 131.745ZM20.4316 137.499V141.343H33.1453V137.5L20.4316 137.499Z" fill="white"/>
<path d="M202.912 122.294C202.634 122.294 202.389 122.23 202.176 122.102C201.962 121.953 201.856 121.739 201.856 121.462V99.7019C201.856 99.4886 201.93 99.3073 202.08 99.1579C202.25 99.0086 202.474 98.9233 202.752 98.9019H208.64C209.877 98.9019 210.997 99.1259 212 99.5739C213.002 100.022 213.792 100.747 214.368 101.75C214.944 102.731 215.232 104.043 215.232 105.686V106.006C215.232 107.67 214.933 109.003 214.336 110.006C213.76 110.987 212.96 111.713 211.936 112.182C210.933 112.63 209.813 112.854 208.576 112.854H203.968V121.462C203.968 121.739 203.85 121.953 203.616 122.102C203.402 122.23 203.168 122.294 202.912 122.294ZM203.968 110.998H208.576C210.005 110.998 211.114 110.603 211.904 109.814C212.714 109.003 213.12 107.766 213.12 106.102V105.75C213.12 104.065 212.714 102.827 211.904 102.038C211.114 101.249 210.005 100.854 208.576 100.854H203.968V110.998ZM219.595 122.294C219.317 122.294 219.072 122.209 218.859 122.038C218.667 121.867 218.571 121.675 218.571 121.462V98.6779C218.571 98.4219 218.667 98.2299 218.859 98.1019C219.072 97.9526 219.317 97.8779 219.595 97.8779C219.893 97.8779 220.139 97.9526 220.331 98.1019C220.544 98.2299 220.651 98.4219 220.651 98.6779V121.462C220.651 121.675 220.544 121.867 220.331 122.038C220.139 122.209 219.893 122.294 219.595 122.294ZM228.299 122.518C227.083 122.518 226.048 122.177 225.195 121.494C224.363 120.79 223.947 119.723 223.947 118.294C223.947 117.121 224.256 116.225 224.875 115.606C225.515 114.966 226.389 114.529 227.499 114.294C228.629 114.038 229.931 113.91 231.403 113.91H233.035V113.174C233.035 112.47 232.907 111.787 232.651 111.126C232.416 110.443 232.021 109.889 231.467 109.462C230.933 109.014 230.197 108.79 229.259 108.79C228.555 108.79 227.979 108.865 227.531 109.014C227.083 109.163 226.731 109.323 226.475 109.494C226.219 109.643 226.005 109.718 225.835 109.718C225.579 109.718 225.365 109.59 225.195 109.334C225.045 109.078 224.971 108.843 224.971 108.63C224.971 108.331 225.195 108.065 225.643 107.83C226.091 107.574 226.645 107.371 227.307 107.222C227.989 107.051 228.661 106.966 229.323 106.966C230.752 106.966 231.883 107.265 232.715 107.862C233.568 108.438 234.176 109.195 234.539 110.134C234.923 111.073 235.115 112.075 235.115 113.142V121.462C235.115 121.697 235.019 121.899 234.827 122.07C234.656 122.219 234.411 122.294 234.091 122.294C233.835 122.294 233.6 122.219 233.387 122.07C233.195 121.899 233.099 121.697 233.099 121.462V120.054C232.565 120.694 231.904 121.27 231.115 121.782C230.325 122.273 229.387 122.518 228.299 122.518ZM228.811 120.758C229.515 120.758 230.187 120.577 230.827 120.214C231.467 119.851 231.989 119.414 232.395 118.902C232.821 118.369 233.035 117.867 233.035 117.398V115.35H231.691C230.731 115.35 229.813 115.414 228.939 115.542C228.085 115.649 227.381 115.894 226.827 116.278C226.293 116.662 226.027 117.27 226.027 118.102C226.027 119.019 226.293 119.691 226.827 120.118C227.381 120.545 228.043 120.758 228.811 120.758ZM239.994 122.294C239.717 122.294 239.471 122.209 239.258 122.038C239.066 121.867 238.97 121.675 238.97 121.462V107.958C238.97 107.702 239.066 107.51 239.258 107.382C239.471 107.233 239.717 107.158 239.994 107.158C240.271 107.158 240.506 107.233 240.698 107.382C240.89 107.51 240.986 107.702 240.986 107.958V109.398C241.327 108.779 241.861 108.225 242.586 107.734C243.311 107.222 244.207 106.966 245.274 106.966C246.298 106.966 247.237 107.243 248.09 107.798C248.965 108.331 249.658 109.057 250.17 109.974C250.682 110.87 250.938 111.873 250.938 112.982V121.462C250.938 121.739 250.831 121.953 250.618 122.102C250.405 122.23 250.159 122.294 249.882 122.294C249.647 122.294 249.413 122.23 249.178 122.102C248.965 121.953 248.858 121.739 248.858 121.462V112.982C248.858 112.278 248.677 111.617 248.314 110.998C247.951 110.379 247.471 109.878 246.874 109.494C246.277 109.089 245.615 108.886 244.89 108.886C244.25 108.886 243.631 109.057 243.034 109.398C242.458 109.718 241.978 110.177 241.594 110.774C241.231 111.371 241.05 112.107 241.05 112.982V121.462C241.05 121.675 240.943 121.867 240.73 122.038C240.538 122.209 240.293 122.294 239.994 122.294Z" fill="#1E1E1E"/>
</svg>
