<svg width="139" height="139" viewBox="0 0 139 139" fill="none" xmlns="http://www.w3.org/2000/svg">
<path d="M69.375 0C55.5 0 46.25 9.25 46.25 18.5C46.25 32.375 50.875 41.625 55.5 46.25V50.875H83.25V46.25C87.875 41.625 92.5 32.375 92.5 18.5C92.5 9.25 83.25 0 69.375 0ZM50.9906 18.8845L69.375 25.0039L87.7594 18.8845L76.4281 47.2039L71.5719 45.2961L78.7406 27.3742L69.375 30.4961L60.0094 27.3742L67.1781 45.2961L62.3219 47.2039L50.9906 18.8845ZM26.9117 41.7406C20.1477 42.6078 14.0195 50.557 14.0195 60.7898C14.0195 66.4555 15.9852 71.4563 18.8469 74.925L22.2867 79.0297L16.9969 80.0125C13.268 80.7352 10.5508 82.7008 8.20938 85.9094C5.86797 89.118 4.07578 93.5695 2.83281 98.7438C0.578125 108.052 0.0578125 119.441 0 129.5H12.3719L13.0194 138.172H44.4L44.9781 129.5H56.7719C56.7719 119.325 56.6562 107.791 54.6039 98.368C53.4477 93.1937 51.7422 88.7422 49.3719 85.5625C47.0016 82.3828 44.1398 80.4172 39.9484 79.7812L34.6008 78.943L37.9828 74.6937C40.7289 71.2539 42.5789 66.3109 42.5789 60.7898C42.5789 49.8633 35.757 41.7695 28.2992 41.7695L26.9117 41.7406ZM108.89 41.7406C102.126 42.6078 95.9977 50.557 95.9977 60.7898C95.9977 66.4555 97.9633 71.4563 100.825 74.925L104.265 79.0297L98.975 80.0125C95.2461 80.7352 92.5289 82.7008 90.1875 85.9094C87.8461 89.118 86.0539 93.5695 84.8109 98.7438C82.5563 108.052 82.0359 119.441 81.9781 129.5H94.35L94.9859 138.172H126.378L126.956 129.5H138.75C138.75 119.325 138.634 107.791 136.582 98.368C135.426 93.1937 133.72 88.7422 131.35 85.5625C128.98 82.3828 126.118 80.4172 121.927 79.7812L116.579 78.943L119.961 74.6937C122.707 71.2539 124.557 66.3109 124.557 60.7898C124.557 49.8633 117.735 41.7695 110.277 41.7695L108.89 41.7406ZM55.5 55.7891V60.9922H83.25V55.7891H55.5ZM60.125 65.6172V70.8203H78.625V65.6172H60.125Z" fill="#FF4500"/>
</svg>
